<?xml version="1.0" encoding="UTF-8"?>
<svg id="Camada_1" data-name="Camada 1" xmlns="http://www.w3.org/2000/svg" viewBox="0 0 64 64">
  <defs>
    <style>
      .cls-1 {
        fill: #fff;
      }
    </style>
  </defs>
  <path class="cls-1" d="M27.12,26.35c1.21,1.13,3.21,9.45,3.38,11.39.75,8.47-3.18,19.51-9.93,24.93-3,2.41-3.79,1.21-6.63-.87C-.84,51-1.75,27.44,12.45,15.81c1.92,1.59,3.05,3.75,4.98,5.45.67.59,1.6,1.34,2.34,1.83,1.62,1.06,6.82,2.76,7.35,3.26Z"/>
  <path class="cls-1" d="M51,15.88c.97-.56,3.05,1.95,3.69,2.67,11.35,12.93,8.79,36.52-6.77,44.82-2.58,1.38-3.74,0-5.7-1.96-7.65-7.59-10.22-19.15-7.38-29.44.33-1.19,1.48-4.49,2.18-5.31,1-1.18,3.64-1.51,5.21-2.28,2.63-1.3,5.54-4.05,7.46-6.27.47-.54,1.2-2.16,1.31-2.23Z"/>
  <path class="cls-1" d="M40.13,9.58c1.69.25,3.62.97,5.15,1.72,3.04,1.48,2.77,1.64.67,4.31-6,7.6-17.71,8.89-25.18,2.72-.91-.75-4.37-4.24-4.38-5.23-.01-1.22,6.13-3.64,7.51-3.53-1.1-1.98-5.7-4.99-6.18-6.97C17.49,1.72,19.17,0,19.94,0c1.3,0,6.67,7.01,8.3,7.95,1,.58,6.68.65,7.72.18C37.44,7.45,43.34-.15,44.44.04c.33.06,2.4,2.14,2.32,2.62-.11.63-6.97,6.59-6.63,6.92Z"/>
</svg>