<?xml version="1.0" encoding="UTF-8"?>
<svg id="Camada_1" data-name="Camada 1" xmlns="http://www.w3.org/2000/svg" viewBox="0 0 64 64">
  <defs>
    <style>
      .cls-1 {
        fill: #fff;
      }
    </style>
  </defs>
  <path class="cls-1" d="M32.12,51.89c8.09-.91,12.97-7.2,11.89-15.3-.79-5.94-6.29-7.68-8.3-12.71-.46-.06-.49-.13-.78.23-.44.56-.82,1.77-1.5,2.59-6.16,7.48-12.49,5.65-20.89,7.12-2.59.45-4.34,1.21-6.73,1.98-.34.11-1.13.43-1.15-.01.64-5.22,2.74-10.33,6.07-14.37C17.39,13.37,29.61,10.53,33.64.03c.9-.16.45.42.57.93.81,3.31.4,6.79-.39,10.05,24.96.73,35.02,33.84,14.5,48.39-9.48,6.72-18.09,2.9-21.7-7.5,1.76-.14,3.76.19,5.49,0ZM13.76,28.8c3.22-.87,7.3-2.13,7.87-5.96.25-1.65-.01-2.33-1.71-1.7-3.04,1.14-5.23,4.68-6.16,7.66Z"/>
  <path class="cls-1" d="M26.25,37.89c-.89,2.1-2.22,3.73-2.92,5.97-2.31,7.46.72,14.24,5.19,20.14-7.15-.44-14.42-5.53-18.32-11.39-1.02-1.54-4.69-8.39-3.38-9.84.32-.36,3.71-2.02,4.42-2.3,4.73-1.92,9.93-2.56,15.02-2.58Z"/>
</svg>