<?xml version="1.0" encoding="UTF-8"?>
<svg id="Camada_1" data-name="Camada 1" xmlns="http://www.w3.org/2000/svg" viewBox="0 0 64 64">
  <defs>
    <style>
      .cls-1 {
        fill: #fff;
      }
    </style>
  </defs>
  <path class="cls-1" d="M41.38,14.31c1.25.79,8.29-2.43,10.29-1.85l-2.13,9.58,14.01,8.63c.94,1.04.26,2.44-.79,3.04l-13.04,7.78c-.78,1.23,1.7,6.96,1.87,8.84.04.43.14.77-.3,1.07-1.32.89-8.23-2.76-9.74-1.71l-8.46,13.8c-1.66,1.13-2.46-.56-3.29-1.74-2.67-3.76-4.64-8.46-7.27-12.3-1.06-.68-8.72,2.62-9.6,1.97-1.49-1.09,2.21-7.94,1.36-9.8-.62-1.36-11.28-6.43-13.36-8.12-1.38-1.12-1.12-2.13.15-3.19l13.23-7.87c.78-1.23-2.48-8.89-1.96-9.6,1.19-1.64,8.52,2.42,10.2,1.36,1.41-1.75,7.49-13.58,8.7-13.95.46-.14.91-.13,1.37,0,1.44.43,7.49,12.02,8.77,14.06ZM32.84,19.79c-.27-.17-.9-.09-1.22.02-1.23.44-3.23,5.82-4.68,7.21-1.61,1.55-7.06,3.12-7.12,5.18-.02.7.19.47.52.68,1.61,1.01,5.97,2.98,6.96,4.14,1.32,1.53,2.4,4.87,3.72,6.63.27.36.33.66.91.65,1.35,0,3.74-6.49,4.91-7.58,1.28-1.19,7.34-3.46,7.57-4.91.11-.66-.21-.49-.49-.7-1.82-1.33-5.92-2.89-7.21-4.28-.91-.98-3.53-6.84-3.87-7.06Z"/>
</svg>