<?xml version="1.0" encoding="UTF-8"?>
<svg id="Camada_1" data-name="Camada 1" xmlns="http://www.w3.org/2000/svg" viewBox="0 0 64 64">
  <defs>
    <style>
      .cls-1 {
        fill: #fff;
      }
    </style>
  </defs>
  <path class="cls-1" d="M40.87,26.08V8.67c0-2,9.89-2.57,9.89.43v16.98c1.7-.25,3.39.9,3.75-1.17.55-3.11-.56-15.79.5-17.14.67-.85,8.04-1.33,8.55.57l-.08,47.89c-.51.45-1.12.36-1.74.41-13.67,1.23-29.18-.99-43.04,0-2.59-.08-4.2-1.55-4.5-4.1l.04-42.98c.21-1.09.75-2.16,1.92-2.38,1.45-.28,7.52-.52,7.52,1.5v16.77c0,.92,3.87.92,3.87,0V8.67c0-1.95,8.18-2.03,9.07-.9,1.23,1.56-.17,14.71.45,17.61.39,1.2,2.76.58,3.81.7Z"/>
  <path class="cls-1" d="M10.34,22.21v34.4c-1.24-.2-4.19.48-4.95-.43-1.26-4.98-5.75-11.53-5.83-16.55-.08-5.23,4.51-11.86,5.83-16.99.76-.91,3.7-.23,4.95-.43Z"/>
</svg>