<?xml version="1.0" encoding="UTF-8"?>
<svg id="Camada_1" data-name="Camada 1" xmlns="http://www.w3.org/2000/svg" viewBox="0 0 64 64">
  <defs>
    <style>
      .cls-1 {
        fill: #fff;
      }
    </style>
  </defs>
  <path class="cls-1" d="M14.27,29.1c.32-2.87,2.28-7.68,4.08-9.98,4.29-5.5,12.18-6.29,13.52-14.24.26-1.52-.02-2.92.16-4.28.06-.43-.16-.74.54-.54,4.64,1.33,8.35,9.04,7.58,13.67-7.78.08-10.64,10.71-3.88,14.46,7.07,3.93,14.61-3.64,10.56-10.56-.08-.25.33-.27.55-.18,1.9.79,6.18,5.99,7.29,7.89,8,13.77-4.53,30.47-19.68,28.93,6.03-2.07,8.56-9.77,4.43-14.8-6.62-8.06-20.68-.52-14.94,10.87,5.3,10.52,20.6,7.05,29,2.81-10.63,14.66-32.06,14.44-42.34-.59-5.59-8.18-6.25-21.07.89-28.46-.78,3.67-.38,7.55,1.05,10.98.22.53.64,1.78,1.18,1.97.21-2.54-.28-5.47,0-7.96Z"/>
</svg>