<?xml version="1.0" encoding="UTF-8"?>
<svg id="Camada_1" data-name="Camada 1" xmlns="http://www.w3.org/2000/svg" viewBox="0 0 64 64">
  <defs>
    <style>
      .cls-1 {
        fill: #fff;
      }
    </style>
  </defs>
  <path class="cls-1" d="M31.79,29.69c-.06.06-.08,1.63,0,1.63h18.53c1,0,5.34-1.89,6.43-2.52,1.82-1.06,3.77-2.69,4.97-4.4,0,5.48-5.36,11.58-10.11,13.91-.86.42-5.11,1.96-5.77,1.96h-10.59c-.77,0-.77,2.04,0,2.04h14.66c1.28,0,6.07-2.26,6.31-2.03-1.64,4.07-5.92,7.68-10.16,8.77-1.67.43-7.32.49-7.77.78-2.1,1.35,2.71,1.37,2.86,2.05-8.88,11.38-27.51,10.39-36.16-.89C-6.67,35.8,3.35,14.14,22.22,12.6c14.4-1.18,31.2,4.28,41.72-8.56.76,11.44-6.7,21.9-17.83,24.72-1.07.27-3.86.93-4.77.93-1.33,0-9.24-.34-9.57,0Z"/>
</svg>