<?xml version="1.0" encoding="UTF-8"?>
<svg id="Camada_1" data-name="Camada 1" xmlns="http://www.w3.org/2000/svg" viewBox="0 0 64 64">
  <defs>
    <style>
      .cls-1 {
        fill: #fff;
      }
    </style>
  </defs>
  <path class="cls-1" d="M60.29,58.75c-1.02,1.32-3.33,2.02-4.92,2.58C28.47,70.75-7,54.68,1.85,22.39,11.67-13.46,67.74-4.16,63.28,35.37c-.91,8.06-4.15,10.12-7.3,16.29-1.93,3.77.12,7.2,4.3,7.09ZM16.97,20.58c-5.09,1.37-5.74,8.76-1.69,11.77,4.78,3.56,11.14.52,11.55-5.34-4.83,1.87-9.68-1.33-9.86-6.43ZM37.56,27.01c.08,7.45,10.71,9.5,13.5,2.57,1.37-3.41.27-7.71-3.42-9.01-.93,5.02-4.91,8.23-10.08,6.44Z"/>
</svg>