<?xml version="1.0" encoding="UTF-8"?>
<svg id="Camada_1" data-name="Camada 1" xmlns="http://www.w3.org/2000/svg" viewBox="0 0 64 64">
  <defs>
    <style>
      .cls-1 {
        fill: #fff;
      }
    </style>
  </defs>
  <path class="cls-1" d="M26.43,46.77c-.35-.31.85-1.67,1.1-2.05,2.34-3.46,5-6.78,7.59-10.06,1.98-.89,15.92-2.81,16.47-3.49.11-.14.11-1.57.05-1.63-.43-.46-11.03-.09-12.61-.43l11.8-16.14.39-2.34-2.1.21-13.67,14.49c-.76.32-.77-.71-.91-1.17-.54-1.84-1.46-9.39-2.01-10.19-.42-.6-1.3-.39-1.91-.41.16,5.67-.14,11.29-.51,16.94-3.04,3.93-6.73,7.26-10.21,10.8-1.2-2.36-3.1-20.43-4-21.01-1.03-.67-1.6.62-1.7,1.45-.9,7.74,1.02,16.55.43,24.39-.7.88-5.66,6.83-6.11,6.93-1.02.23-4-5.41-4.46-6.43C-.45,36.46,1,24.24,8.14,15.66,19.91,1.54,42.17-.51,59.38.09c5.28,18.99,5.82,49.06-13.9,60.04-9.07,5.05-20.18,5.3-29.12-.13l5.13-7.26c7.68-1.87,16.78-2.07,24.3-4.07,1.13-.3,1.9-.51,1.66-1.91h-21.01Z"/>
</svg>