<?xml version="1.0" encoding="UTF-8"?>
<svg id="Camada_1" data-name="Camada 1" xmlns="http://www.w3.org/2000/svg" viewBox="0 0 64 64">
  <defs>
    <style>
      .cls-1 {
        fill: #fff;
      }
    </style>
  </defs>
  <path class="cls-1" d="M30.41,35.01v16.62l-14.5,8.13v-16.45c4.71-2.94,9.52-5.91,14.5-8.31Z"/>
  <path class="cls-1" d="M30.41,12.37v16.62c-5.02-2.39-9.83-5.3-14.5-8.31V4.24l14.5,8.13Z"/>
  <path class="cls-1" d="M48.09,43.14v16.62c-5-2.37-9.74-5.45-14.5-8.31v-16.45l14.5,8.13Z"/>
  <polygon class="cls-1" points="49.38 23.76 64 32 49.62 40.23 35.37 32 49.38 23.76"/>
  <path class="cls-1" d="M14.02,23.76l14.26,8.24c-4.58,3.01-9.36,5.83-14.26,8.24-4.64-2.79-9.59-5.18-14.02-8.24l14.02-8.24Z"/>
  <polygon class="cls-1" points="48.09 4.24 48.09 20.68 33.59 28.99 33.59 12.55 48.09 4.24"/>
</svg>