<?xml version="1.0" encoding="UTF-8"?>
<svg id="Camada_1" data-name="Camada 1" xmlns="http://www.w3.org/2000/svg" viewBox="0 0 64 64">
  <defs>
    <style>
      .cls-1 {
        fill: #fff;
      }
    </style>
  </defs>
  <path class="cls-1" d="M39.16,57.83c-.52-.07-.55-.15-.87.26-.66.83-.74,2.02-1.95,3.07-4.14,3.59-9.99,1.27-11.19-3.75l-2.27,3.24c-8.72,7.21-17.05-4.05-12.61-12.54C-5.79,35.97-2.13,14.32,15.11,5.11c28.18-15.06,64.55,14.68,41.68,40.41-.69.78-3,2.31-3.13,2.84-.21.81.66,1.98.76,2.93.35,3.46-.18,6.96-2.77,9.47-4.02,3.89-10.76,2.27-12.49-2.93ZM28.04,12.09c-11.38,1.29-22.2,12.27-15.12,23.8,9.31,15.15,42.61,10.31,39.8-10.08-1.46-10.59-15.56-14.75-24.68-13.72Z"/>
</svg>