<?xml version="1.0" encoding="UTF-8"?>
<svg id="Camada_1" data-name="Camada 1" xmlns="http://www.w3.org/2000/svg" viewBox="0 0 64 64">
  <defs>
    <style>
      .cls-1 {
        fill: #fff;
      }
    </style>
  </defs>
  <path class="cls-1" d="M49.41,59.56c-1.38,1.55-8.06,3.97-10.23,4.21-16.04,1.78-33.66-6.81-37.56-23.34C-5.15,11.82,22.41-9.81,48.48,4.58c24.78,13.68,17.33,51.05-12.02,48.71-12.59-1-22.25-13.71-16.73-25.93,7.17-15.88,31.37-8.7,25.45,6.65-2.93,7.59-14.93,4.61-14.45-.2.38-3.87,3.61.17,4.43.61,4.98,2.64,7.64-7.13,2.01-9.35-8.5-3.34-14.6,6.76-9.38,14.42,6.76,9.92,22.19,4.45,23.54-6.67,3.2-26.45-38.5-28.69-40.3.06-1.12,17.85,12.97,27.44,29.59,26.38,2.16-.14,6.75-1.55,8.25-1.41,1.21.11,1.24.93.53,1.72Z"/>
</svg>