<?xml version="1.0" encoding="UTF-8"?>
<svg id="Camada_1" data-name="Camada 1" xmlns="http://www.w3.org/2000/svg" viewBox="0 0 64 64">
  <defs>
    <style>
      .cls-1 {
        fill: #fff;
      }
    </style>
  </defs>
  <path class="cls-1" d="M51.09,5.86c-2.48,8.38-6.31,16.3-9.37,24.48l-28.69,19.03-10.86-3.32L0,30.61l1.45-2.32L22.64,5.86h28.45Z"/>
  <path class="cls-1" d="M40.22,58.14l-21.11-6.79,23.88-15.89c.64.04,6.89,9.04,7.29,10.47l-10.06,12.21Z"/>
  <path class="cls-1" d="M54.4,41.99c-.28.23-.58.02-.86-.26-.78-.81-6.95-9.63-6.94-10.25l10.08-25.2,7.31,23.47-.43,1.27c-3.05,3.21-5.7,6.76-8.76,9.95-.31.32-.36.99-.41,1.03Z"/>
</svg>