<?xml version="1.0" encoding="UTF-8"?>
<svg id="Camada_1" data-name="Camada 1" xmlns="http://www.w3.org/2000/svg" viewBox="0 0 45.35 45.35">
  <path d="M38.69,24.98c-.17.85-.22,1.7-.44,2.54-1.31,5.01-5.54,9.46-10.48,11.01-1.12.35-2.27.55-3.43.72l-1.37,5.73c-.8.9-.87-1-.99-1.49-.34-1.41-.7-2.83-1.05-4.23-.25-.17-.55-.07-.83-.11-3.83-.56-7.55-2.75-10.01-5.72-2-2.41-3.14-5.32-3.47-8.44L.22,23.51c-.22-.12-.31-.39-.09-.58l15.43-3.98-.05-.3-4.22-6.42c-.16-.39.01-.8.48-.61l6.51,4.2c.33.16.43-.67.5-.94,1.21-4.65,2.23-9.35,3.4-14,.07-.63.57-.95.81-.2.34,1.1.61,2.51.88,3.67l2.76,11.43.22.02,6.4-4.11c.46-.27.79,0,.64.5-1.47,2.22-2.99,4.41-4.35,6.7l15.8,4.15.02.29-.17.16-6.49,1.5ZM6.61,23.03h10.71c.1-1.52,1.05-3.1,2.32-3.94,3.35-2.19,7.9-.05,8.19,3.94h10.64c-.03-.13-.14-.12-.23-.13-3.26-.62-6.49-1.48-9.75-2.1-.34-.12-.48-.63-.69-.91-1.05-1.38-2.66-2.46-4.42-2.67-.2-.02-.78.05-.87-.07V6.56c-.12,0-.35,1.36-.4,1.54-.82,3.24-1.73,6.46-2.46,9.72-.11.23-1.02.75-1.29.99-.59.52-1.06,1.21-1.44,1.9-3.36.77-6.75,1.49-10.12,2.19-.07.01-.2.02-.18.12ZM22.06,19.97c-3.07.35-4.25,4.39-1.82,6.34,1.77,1.42,4.48.96,5.55-1.07,1.42-2.69-.75-5.61-3.73-5.27ZM15.72,26.84l-7.49-1.5c.07,1.25.43,2.47.92,3.62.54,1.28,1.48,2.93,2.49,3.87.04.04.06.11.07.17l.14-.04c1.13-1.82,2.4-3.54,3.53-5.36.08-.13.44-.65.35-.76ZM37.07,25.3l-7.43,1.54c-.1.1.35.79.44.93,1.05,1.75,2.31,3.43,3.41,5.16.14.03,1.2-1.35,1.33-1.54,1.21-1.76,2.09-3.95,2.25-6.09ZM22.74,28.85v9.5l2.55-10.07c.01-.24-.45.1-.59.15-.65.23-1.27.34-1.96.42ZM18.66,29.59l-.31.05-5.91,3.8c-.2.2.27.55.44.7.92.82,2.23,1.69,3.33,2.22,1.38.66,2.83,1.04,4.33,1.33l-1.88-8.1ZM32.98,33.4c-.08-.02-.15-.04-.22-.08-1.62-1.13-3.54-2.39-5.24-3.39-.13-.08-.73-.44-.82-.35l-1.94,8.03c2.52-.27,5.02-1.37,6.99-2.95.22-.18,1.04-.85,1.18-1.03.06-.08.09-.13.06-.24Z"/>
  <path d="M19.98,2.76l.12.05.03.16c-.17.33-.31,1.8-.53,1.95-.2.13-1.52.35-1.89.46-6.55,1.93-11.12,7.28-12.69,13.82-.06.23.03.49-.16.71-.14.17-1.91.64-2.07.54-.06-.14,0-.38.01-.53.28-2.31,1.25-4.9,2.38-6.93C8.23,7.51,13.77,3.71,19.98,2.76Z"/>
  <path d="M36.5,8.33c3.31,3.21,5.52,7.55,6.05,12.15-.08.08-2.04-.44-2.15-.56-.5-2.55-1.38-4.93-2.82-7.09-2.7-4.07-7.04-6.99-11.87-7.88l-.16-.11-.48-2.03c1.96.17,3.93.79,5.71,1.62,2.1.97,4.05,2.29,5.7,3.9Z"/>
  <path d="M37.16,37.04c-2.84,2.96-7.09,5.25-11.18,5.85-.2.03-.86.17-.93,0l.5-2.04c2.03-.35,3.94-.97,5.76-1.94,4.76-2.55,8.16-7.02,9.1-12.39l.22-.25c.53-.05,1.26-.43,1.77-.45.09,0,.19,0,.22.11.02.08-.25,1.42-.29,1.63-.81,3.61-2.63,6.82-5.16,9.46Z"/>
  <path d="M9.45,35.52c.87.91,2.04,1.87,3.1,2.55,2.14,1.39,4.57,2.38,7.12,2.72l.53,2.18c-2.94-.28-5.85-1.38-8.33-2.94-4.98-3.13-8.4-8.31-9.13-14.19l2.08.5c.22.65.29,1.33.49,1.99.76,2.59,2.29,5.25,4.15,7.19Z"/>
  <path d="M37.58,16.42c.31.27.19.82-.16,1.04-.15.09-1.31.58-1.47.61-.84.15-1.07-.79-.4-1.2.17-.11,1.31-.56,1.49-.59.13-.02.43.06.53.14Z"/>
  <path d="M9.87,17.02c.39.43.1,1.1-.55,1.05-.2-.01-1.4-.51-1.57-.64-.53-.41-.22-1.23.36-1.17.18.02,1.65.64,1.76.76Z"/>
  <path d="M28.19,10.36c-.35-.44.34-1.46.62-1.85.21-.29.31-.47.72-.41,1.04.15-.05,1.85-.4,2.27-.25.3-.7.3-.94-.01Z"/>
  <path d="M15.55,9.73c-.24-.38-.84-1.03-.27-1.43.23-.16.53-.17.77-.03.14.08.76,1.1.84,1.3.14.35.19.82-.24.97-.7.24-.83-.38-1.1-.81Z"/>
  <path d="M22.06,21.04c3.65-.57,4.1,4.69.78,5-3.4.31-3.69-4.54-.78-5ZM21.09,24.94c2.08,2.08,4.95-1.38,2.74-3.04-2-1.51-4.5,1.29-2.74,3.04Z"/>
</svg>