<?xml version="1.0" encoding="UTF-8"?>
<svg id="Camada_1" data-name="Camada 1" xmlns="http://www.w3.org/2000/svg" viewBox="0 0 28.35 28.35">
  <defs>
    <style>
      .cls-1 {
        fill: #1d1d1b;
      }
    </style>
  </defs>
  <path class="cls-1" d="M14.17,0c0,1.96.37,3.79,1.11,5.51s1.75,3.22,3.05,4.52c1.29,1.29,2.8,2.31,4.52,3.04,1.72.73,3.55,1.1,5.51,1.1-1.96,0-3.79.37-5.51,1.11-1.72.74-3.22,1.75-4.52,3.05-1.29,1.29-2.31,2.8-3.05,4.52s-1.11,3.55-1.11,5.51c0-1.96-.37-3.79-1.1-5.51s-1.75-3.22-3.05-4.52c-1.3-1.29-2.8-2.31-4.52-3.05C3.79,14.54,1.96,14.17,0,14.17c1.96,0,3.79-.37,5.5-1.1,1.71-.73,3.22-1.75,4.52-3.04,1.3-1.29,2.32-2.8,3.05-4.52s1.1-3.55,1.1-5.51Z"/>
</svg>